name Walk9.mot
datacolumns 19
datarows 25
range 1.45600000 1.48000000
endheader

                time	   L_ground_force_vx	   L_ground_force_vy	   L_ground_force_vz	   L_ground_force_px	   L_ground_force_py	   L_ground_force_pz	   R_ground_force_vx	   R_ground_force_vy	   R_ground_force_vz	   R_ground_force_px	   R_ground_force_py	   R_ground_force_pz	   L_ground_torque_x	   L_ground_torque_y	   L_ground_torque_z	   R_ground_torque_x	   R_ground_torque_y	   R_ground_torque_z	
          1.45600000	         20.38581385	        553.03972656	         41.34701821	         -0.31430769	          0.00000000	         -0.09959577	         -0.00005241	          0.18467386	          0.01186178	          0.00011002	          0.00000000	          0.00004826	          0.00000000	         -0.51139589	          0.00000000	          0.00000000	         -0.00018687	          0.00000000	
          1.45700000	         20.84493471	        554.63379673	         41.41466030	         -0.31418807	          0.00000000	         -0.09956461	         -0.00094383	          0.19726489	          0.01225346	          0.00011628	          0.00000000	          0.00005093	          0.00000000	         -0.51901698	          0.00000000	          0.00000000	         -0.00019289	          0.00000000	
          1.45800000	         21.30990897	        556.24145754	         41.48529077	         -0.31406858	          0.00000000	         -0.09953290	         -0.00191419	          0.21021126	          0.01263093	          0.00012264	          0.00000000	          0.00005364	          0.00000000	         -0.52649934	          0.00000000	          0.00000000	         -0.00019867	          0.00000000	
          1.45900000	         21.78082789	        557.86256967	         41.55907203	         -0.31394923	          0.00000000	         -0.09950068	         -0.00296682	          0.22349251	          0.01299132	          0.00012908	          0.00000000	          0.00005638	          0.00000000	         -0.53383167	          0.00000000	          0.00000000	         -0.00020417	          0.00000000	
          1.46000000	         22.25777169	        559.49699338	         41.63616551	         -0.31383003	          0.00000000	         -0.09946800	         -0.00410500	          0.23708492	          0.01333154	          0.00013559	          0.00000000	          0.00005914	          0.00000000	         -0.54100340	          0.00000000	          0.00000000	         -0.00020934	          0.00000000	
          1.46100000	         22.74080936	        561.14458749	         41.71673103	         -0.31371099	          0.00000000	         -0.09943492	         -0.00533200	          0.25096127	          0.01364832	          0.00014215	          0.00000000	          0.00006192	          0.00000000	         -0.54800466	          0.00000000	          0.00000000	         -0.00021412	          0.00000000	
          1.46200000	         23.22999885	        562.80520682	         41.80092596	         -0.31359211	          0.00000000	         -0.09940145	         -0.00665100	          0.26509063	          0.01393817	          0.00014872	          0.00000000	          0.00006469	          0.00000000	         -0.55482621	          0.00000000	          0.00000000	         -0.00021847	          0.00000000	
          1.46300000	         23.72538732	        564.47869881	         41.88890413	         -0.31347340	          0.00000000	         -0.09936764	         -0.00806509	          0.27943816	          0.01419739	          0.00015530	          0.00000000	          0.00006746	          0.00000000	         -0.56145951	          0.00000000	          0.00000000	         -0.00022231	          0.00000000	
          1.46400000	         24.22701152	        566.16490032	         41.98081462	         -0.31335487	          0.00000000	         -0.09933352	         -0.00957729	          0.29396488	          0.01442207	          0.00016184	          0.00000000	          0.00007021	          0.00000000	         -0.56789689	          0.00000000	          0.00000000	         -0.00022560	          0.00000000	
          1.46500000	         24.73489834	        567.86363562	         42.07680062	         -0.31323650	          0.00000000	         -0.09929911	         -0.01119045	          0.30862745	          0.01460806	          0.00016832	          0.00000000	          0.00007292	          0.00000000	         -0.57413163	          0.00000000	          0.00000000	         -0.00022825	          0.00000000	
          1.46600000	         25.24906524	        569.57471600	         42.17699830	         -0.31311830	          0.00000000	         -0.09926444	         -0.01290730	          0.32337793	          0.01475100	          0.00017471	          0.00000000	          0.00007558	          0.00000000	         -0.58015802	          0.00000000	          0.00000000	         -0.00023022	          0.00000000	
          1.46700000	         25.76952065	        571.29794065	         42.28153590	         -0.31300028	          0.00000000	         -0.09922955	         -0.01473038	          0.33816358	          0.01484631	          0.00018097	          0.00000000	          0.00007817	          0.00000000	         -0.58597111	          0.00000000	          0.00000000	         -0.00023141	          0.00000000	
          1.46800000	         26.29626429	        573.03309832	         42.39053291	         -0.31288242	          0.00000000	         -0.09919446	         -0.01666203	          0.35292661	          0.01488916	          0.00018707	          0.00000000	          0.00008069	          0.00000000	         -0.59156642	          0.00000000	          0.00000000	         -0.00023176	          0.00000000	
          1.46900000	         26.82928744	        574.77996880	         42.50409955	         -0.31276474	          0.00000000	         -0.09915919	         -0.01870437	          0.36760393	          0.01487450	          0.00019296	          0.00000000	          0.00008310	          0.00000000	         -0.59693958	          0.00000000	          0.00000000	         -0.00023118	          0.00000000	
          1.47000000	         27.36857335	        576.53832385	         42.62233631	         -0.31264722	          0.00000000	         -0.09912379	         -0.02085925	          0.38212698	          0.01479705	          0.00019860	          0.00000000	          0.00008540	          0.00000000	         -0.60208607	          0.00000000	          0.00000000	         -0.00022960	          0.00000000	
          1.47100000	         27.91409768	        578.30792718	         42.74533363	         -0.31252985	          0.00000000	         -0.09908828	         -0.02312823	          0.39642143	          0.01465129	          0.00020395	          0.00000000	          0.00008756	          0.00000000	         -0.60700113	          0.00000000	          0.00000000	         -0.00022692	          0.00000000	
          1.47200000	         28.46582906	        580.08853345	         42.87317144	         -0.31241264	          0.00000000	         -0.09905269	         -0.02551253	          0.41040700	          0.01443147	          0.00020895	          0.00000000	          0.00008955	          0.00000000	         -0.61167987	          0.00000000	          0.00000000	         -0.00022305	          0.00000000	
          1.47300000	         29.02372952	        581.87988643	         43.00591882	         -0.31229557	          0.00000000	         -0.09901707	         -0.02801303	          0.42399725	          0.01413163	          0.00021355	          0.00000000	          0.00009136	          0.00000000	         -0.61611746	          0.00000000	          0.00000000	         -0.00021791	          0.00000000	
          1.47400000	         29.58775485	        583.68171669	         43.14363340	         -0.31217864	          0.00000000	         -0.09898144	         -0.03063019	          0.43709929	          0.01374557	          0.00021769	          0.00000000	          0.00009296	          0.00000000	         -0.62030937	          0.00000000	          0.00000000	         -0.00021138	          0.00000000	
          1.47500000	         30.15785486	        585.49373943	         43.28636090	         -0.31206182	          0.00000000	         -0.09894584	         -0.03336406	          0.44961367	          0.01326686	          0.00022133	          0.00000000	          0.00009433	          0.00000000	         -0.62425144	          0.00000000	          0.00000000	         -0.00020338	          0.00000000	
          1.47600000	         30.73397354	        587.31565285	         43.43413453	         -0.31194512	          0.00000000	         -0.09891030	         -0.03621418	          0.46143408	          0.01268888	          0.00022438	          0.00000000	          0.00009544	          0.00000000	         -0.62793993	          0.00000000	          0.00000000	         -0.00019379	          0.00000000	
          1.47700000	         31.31604930	        589.14713749	         43.58697441	         -0.31182852	          0.00000000	         -0.09887485	         -0.03917959	          0.47244722	          0.01200478	          0.00022680	          0.00000000	          0.00009625	          0.00000000	         -0.63137142	          0.00000000	          0.00000000	         -0.00018251	          0.00000000	
          1.47800000	         31.90401537	        590.98785614	         43.74488720	         -0.31171200	          0.00000000	         -0.09883952	         -0.04225875	          0.48253259	          0.01120754	          0.00022850	          0.00000000	          0.00009674	          0.00000000	         -0.63454270	          0.00000000	          0.00000000	         -0.00016943	          0.00000000	
          1.47900000	         32.49780032	        592.83745414	         43.90786597	         -0.31159555	          0.00000000	         -0.09880434	         -0.04544951	          0.49156234	          0.01028992	          0.00022941	          0.00000000	          0.00009688	          0.00000000	         -0.63745082	          0.00000000	          0.00000000	         -0.00015444	          0.00000000	
          1.48000000	         33.09732876	        594.69555924	         44.07589035	         -0.31147914	          0.00000000	         -0.09876933	         -0.04874907	          0.49940106	          0.00924454	          0.00022947	          0.00000000	          0.00009663	          0.00000000	         -0.64009310	          0.00000000	          0.00000000	         -0.00013741	          0.00000000	
